<svg xmlns="http://www.w3.org/2000/svg" viewBox="0 0 32 32">
  <defs>
    <style>
      .bg { fill: #1B4F8A; } /* Warna biru tua default */
      .icon { stroke: #FFFFFF; }
      
      /* Otomatis berubah warna jadi biru cerah kalau browser mode gelap */
      @media (prefers-color-scheme: dark) {
        .bg { fill: #2E7DD6; } 
      }
    </style>
  </defs>
  
  <rect class="bg" width="32" height="32" rx="8" />
  
  <g class="icon" fill="none" stroke-width="2.5" stroke-linecap="round" stroke-linejoin="round" transform="translate(4, 4)">
    <path d="M19 11H5m14 0a2 2 0 012 2v6a2 2 0 01-2 2H5a2 2 0 01-2-2v-6a2 2 0 012-2m14 0V9a2 2 0 00-2-2M5 11V9a2 2 0 012-2m0 0V5a2 2 0 012-2h6a2 2 0 012 2v2M7 7h10" />
  </g>
</svg>
